<svg width="24" height="24" viewBox="0 0 24 24" fill="none" xmlns="http://www.w3.org/2000/svg">
    <path fill-rule="evenodd" clip-rule="evenodd" d="M5.75503 20.8142L4.9703 21.1689C3.09106 22.0184 2.12643 22.2166 2.07613 21.7635C2.01778 21.237 1.99303 19.2936 2.00168 15.9335C2.01245 13.7041 2.02985 11.4845 2.054 9.27463C2.10028 8.98367 2.46508 8.68376 3.1484 8.3749C3.82106 8.07076 4.24894 7.98666 4.43215 8.12248C4.48306 8.1766 4.5241 8.34452 4.55529 8.62612C4.68015 9.75271 4.71003 12.6518 4.64483 17.3233C4.63507 17.842 4.63195 18.3193 4.63538 18.7549L7.49403 17.3855C7.77432 17.2846 7.97916 17.3623 8.10854 17.6189C8.23792 17.8754 8.31408 18.1078 8.33722 18.316C8.42002 19.0629 8.2018 19.5731 7.68277 19.8463L7.15629 20.1036C6.64782 20.372 6.1807 20.6088 5.75503 20.8142Z" fill="#080707"/>
    <path fill-rule="evenodd" clip-rule="evenodd" d="M11.2384 18.3935C9.97174 18.9018 9.11819 18.7121 8.67783 17.8247C8.23747 16.9371 7.95486 15.9302 7.83001 14.8036C7.77297 14.2893 7.73856 13.7262 7.72679 13.1143C7.67135 11.1976 7.8787 9.47721 8.34884 7.95311C8.81898 6.42891 9.6839 5.3821 10.9438 4.81256L10.9759 4.79807C12.2453 4.31425 13.1018 4.50571 13.5454 5.37244C13.9891 6.23917 14.2714 7.21747 14.3921 8.30735C14.4519 8.8461 14.483 9.43003 14.4854 10.059C14.6136 14.5531 13.5312 17.3313 11.2384 18.3935ZM11.1615 15.7279C11.7754 15.399 12.0518 13.8466 11.9908 11.071C11.9801 10.3685 11.9436 9.73573 11.8812 9.17243C11.8445 8.84183 11.7747 8.41365 11.6716 7.88808C11.5685 7.3624 11.342 7.14016 10.9922 7.22115C10.6505 7.37558 10.4174 7.90206 10.2928 8.80068C10.1681 9.69931 10.1175 10.7091 10.1408 11.8302C10.1528 12.5448 10.1899 13.1838 10.2524 13.7471C10.2904 14.09 10.364 14.526 10.4731 15.0554C10.5823 15.5847 10.8117 15.8089 11.1615 15.7279Z" fill="#080707"/>
    <path fill-rule="evenodd" clip-rule="evenodd" d="M19.16 14.7546L18.3753 15.1094C16.4961 15.9588 15.5314 16.157 15.4812 15.704C15.4228 15.1774 15.398 13.2341 15.4067 9.87398C15.4175 7.64453 15.4349 5.42483 15.4591 3.2151C15.5052 2.92414 15.87 2.62423 16.5534 2.31526C17.226 2.01123 17.654 1.92712 17.8372 2.06284C17.888 2.11707 17.9291 2.28488 17.9604 2.56658C18.0852 3.69318 18.1151 6.59218 18.0499 11.2638C18.0401 11.7825 18.0369 12.2597 18.0404 12.6954L20.8991 11.3259C21.1794 11.2249 21.3842 11.3027 21.5135 11.5593C21.6429 11.8159 21.7191 12.0482 21.7422 12.2565C21.825 13.0034 21.6069 13.5134 21.0877 13.7867L20.5612 14.0441C20.0528 14.3125 19.5858 14.5493 19.16 14.7546Z" fill="#080707"/>
</svg>
