<svg width="24" height="24" viewBox="0 0 24 24" fill="none" xmlns="http://www.w3.org/2000/svg">
    <path fill-rule="evenodd" clip-rule="evenodd" d="M17.8617 17.3434C18.034 17.3279 18.1803 17.2658 18.3009 17.1572C18.4215 17.0485 18.4817 16.9088 18.4817 16.7381C18.5678 15.8068 18.7745 14.3826 19.1017 12.4657C19.429 10.5487 19.782 8.68219 20.1609 6.86612C20.5398 5.05006 20.8412 3.81607 21.0651 3.16414C21.0823 3.10206 21.0909 3.03997 21.0909 2.97788C21.0909 2.83818 21.0306 2.69849 20.9101 2.55879C20.5656 2.21731 20.2513 2.0388 19.9672 2.02328C19.683 2.00776 19.4978 2 19.4117 2C19.0328 2 18.6626 2.04657 18.3009 2.1397C17.8531 2.26387 17.5001 2.38805 17.2417 2.51222C17.0006 2.60536 16.8628 2.76834 16.8284 3.00116C16.7078 3.77726 16.4969 5.17423 16.1955 7.19208C15.8941 9.20993 15.6573 10.9756 15.4851 12.4889C15.3128 14.0023 15.2267 15.0617 15.2267 15.6671C15.2267 16.0706 15.2526 16.3578 15.3042 16.5285C15.5109 16.8545 15.8639 17.0718 16.3634 17.1804C16.8628 17.2891 17.2762 17.3434 17.6034 17.3434H17.8617ZM7.79961 16.8545C7.63599 17.0407 7.43363 17.1416 7.19252 17.1572C6.84807 17.1572 6.49932 17.1145 6.14627 17.0291C5.79321 16.9437 5.58224 16.7691 5.51335 16.5052C5.46168 16.2724 5.43585 15.9387 5.43585 15.5041C5.43585 15.3023 5.44876 14.9414 5.4746 14.4214C5.50043 13.9014 5.59946 13.2612 5.77168 12.5006C5.9439 11.74 6.21085 11.1967 6.57252 10.8708C6.84807 10.669 7.15808 10.4517 7.50252 10.2189C8.36364 9.69111 9.12142 9.078 9.77586 8.37951C10.2064 7.92938 10.4217 7.44043 10.4217 6.91269C10.4217 6.61777 10.3528 6.3151 10.215 6.00466C10.0945 5.70974 9.91364 5.50019 9.67253 5.37602C9.44864 5.25184 9.12142 5.18976 8.69086 5.18976H8.56169C7.01169 5.26737 6.06446 5.7175 5.72001 6.54016C5.59946 6.83508 5.53918 7.11447 5.53918 7.37835C5.53918 7.89057 5.73724 8.37175 6.13335 8.82189C6.25391 8.96158 6.31418 9.10128 6.31418 9.24098C6.31418 9.28754 6.29266 9.37679 6.2496 9.50873C6.20654 9.64067 6.07307 9.7532 5.84918 9.84633C5.43585 9.98603 5.03112 10.0559 4.63501 10.0559C4.13556 10.0559 3.58876 9.8929 2.99459 9.56694C2.40042 9.24098 2.06889 8.51921 2 7.40163V7.3085C2 6.5324 2.2282 5.73302 2.68459 4.91036C3.14098 4.0877 3.90306 3.39697 4.97084 2.83818C5.93529 2.34148 7.18391 2.09313 8.71669 2.09313H9.13003C10.525 2.1397 11.7091 2.57819 12.6821 3.40861C13.6552 4.23904 14.202 5.27513 14.3225 6.51688V6.65658C14.3225 7.61894 13.9781 8.41055 13.2892 9.03143C12.6003 9.65231 11.8253 10.1878 10.9642 10.638C9.96531 11.1502 9.27642 11.6934 8.89753 12.2678C8.58753 12.8576 8.34641 13.5095 8.17419 14.2235C8.05364 14.7047 7.99336 15.1626 7.99336 15.5972C7.99336 15.8145 8.01058 16.0318 8.04502 16.2491V16.2957C8.04502 16.482 7.96322 16.6682 7.79961 16.8545ZM8.29044 21.4063C7.85127 21.8021 7.3303 22 6.72752 22C6.10752 22 5.57793 21.8021 5.13876 21.4063C4.69959 21.0105 4.48001 20.5409 4.48001 19.9977C4.48001 19.4389 4.69959 18.9616 5.13876 18.5658C5.57793 18.17 6.10752 17.9721 6.72752 17.9721C7.3303 17.9721 7.85127 18.17 8.29044 18.5658C8.72961 18.9616 8.94919 19.4389 8.94919 19.9977C8.94919 20.5409 8.72961 21.0105 8.29044 21.4063ZM18.0813 21.4063C17.6421 21.8021 17.1126 22 16.4926 22C15.8898 22 15.3688 21.8021 14.9296 21.4063C14.4905 21.0105 14.2709 20.5409 14.2709 19.9977C14.2709 19.4389 14.4905 18.9616 14.9296 18.5658C15.3688 18.17 15.8898 17.9721 16.4926 17.9721C17.1126 17.9721 17.6421 18.17 18.0813 18.5658C18.5205 18.9616 18.7401 19.4389 18.7401 19.9977C18.7401 20.5409 18.5205 21.0105 18.0813 21.4063Z" fill="#080707"/>
</svg>
