<svg width="24" height="24" viewBox="0 0 24 24" fill="none" xmlns="http://www.w3.org/2000/svg">
    <path d="M16.5264 8.29688C16.4912 10.4062 15.9463 11.751 14.7598 13.3154C13.3975 15.126 11.6221 17.2354 10.2773 19.8281C9.9082 20.5576 9.56543 20.9883 8.90625 20.9883C8.15918 20.9883 7.59668 20.4609 7.59668 19.5908C7.59668 17.9824 9.09961 15.7676 9.09961 14.5811C9.09961 13.957 8.59863 13.5703 7.83398 13.5703H4.66113C3.72949 13.5703 3.01758 12.832 3.01758 11.9268C3.01758 11.417 3.19336 10.9951 3.4834 10.749C3.60645 10.6348 3.62402 10.5557 3.50098 10.4414C3.27246 10.2129 3.14062 9.76465 3.14062 9.33398C3.14062 8.74512 3.42188 8.22656 3.82617 7.97168C3.9668 7.89258 3.98438 7.78711 3.89648 7.66406C3.70312 7.40918 3.58887 7.04883 3.58887 6.64453C3.58887 5.94141 4.02832 5.40527 4.6084 5.1416C4.69629 5.10645 4.71387 5.01855 4.65234 4.92188C4.54688 4.72852 4.45898 4.47363 4.45898 4.13965C4.45898 3.26953 5.13574 2.79492 5.8916 2.61035C6.40137 2.47852 7.28027 2.39062 8.43164 2.39941L9.65332 2.4082C13.8633 2.44336 16.5791 4.94824 16.5264 8.29688ZM20.9648 8.22656C20.9648 11.0391 19.3916 13.2363 17.3438 13.2363H16.1309C16.9658 12.1377 17.7568 10.5293 17.792 8.31445C17.8184 6.2666 17.0713 4.46484 15.4893 3.25195H17.0098C19.2773 3.25195 20.9648 5.50195 20.9648 8.22656Z" fill="#080707"/>
</svg>
