<svg width="24" height="24" viewBox="0 0 24 24" fill="none" xmlns="http://www.w3.org/2000/svg">
    <path d="M7.5 14.8359C7.50879 12.7266 8.05371 11.3818 9.24023 9.81738C10.6025 8.00684 12.3779 5.89746 13.7227 3.30469C14.0918 2.5752 14.4346 2.14453 15.0938 2.14453C15.8496 2.14453 16.4033 2.67188 16.4033 3.54199C16.4033 5.15039 14.9004 7.36523 14.9004 8.55176C14.9004 9.17578 15.4014 9.5625 16.166 9.5625H19.3389C20.2705 9.5625 20.9824 10.3008 20.9824 11.2061C20.9824 11.7158 20.8066 12.1377 20.5254 12.3926C20.3936 12.498 20.376 12.5771 20.499 12.6914C20.7275 12.9199 20.8594 13.3682 20.8594 13.7988C20.8594 14.3877 20.5781 14.9062 20.1738 15.1611C20.0332 15.2402 20.0156 15.3457 20.1035 15.4688C20.2969 15.7236 20.4111 16.084 20.4111 16.4883C20.4111 17.1914 19.9717 17.7275 19.3916 17.9912C19.3037 18.0264 19.2861 18.1143 19.3477 18.2109C19.4531 18.4043 19.541 18.6592 19.541 18.9932C19.541 19.8633 18.8643 20.3379 18.1084 20.5225C17.5986 20.6543 16.7197 20.7422 15.5684 20.7422H14.3467C10.1367 20.7334 7.49121 18.1846 7.5 14.8359ZM3.01758 14.9062C3.01758 12.0938 4.59082 9.89648 6.63867 9.89648H7.86035C7.02539 10.9951 6.23438 12.6035 6.22559 14.8184C6.20801 16.8662 6.91113 18.668 8.50195 19.8809H6.97266C4.71387 19.8809 3.01758 17.6309 3.01758 14.9062Z" fill="#080707"/>
</svg>
